<svg width="816" height="824" viewBox="0 0 816 824" fill="none" xmlns="http://www.w3.org/2000/svg">
<g clip-path="url(#clip0_1_85)">
<rect width="816" height="824" fill="white"/>
<mask id="mask0_1_85" style="mask-type:alpha" maskUnits="userSpaceOnUse" x="0" y="0" width="816" height="824">
<path d="M0 412V824H408H816V412V-6.10352e-05H408H0V412ZM434 75.4666C469.733 85.0667 497.867 113.733 506.133 149.067C509.333 162.4 508 185.467 503.333 198.933C496.4 218.933 486.933 231.6 465.067 249.6C442.933 268 429.6 284.8 421.733 304.267C416.4 317.467 414.667 326 413.733 344.4C412.933 360.667 412.8 361.467 409.867 362.133C408.133 362.533 406.267 362.533 405.6 362.133C404.8 361.733 403.867 355.467 403.333 348.267C400.267 303.067 387.067 278.533 349.2 247.867C332.133 234.133 325.067 225.867 318 211.333C305.467 186.133 303.733 163.333 312.133 138.133C323.067 105.867 356 79.3333 392.667 73.2C402.133 71.7333 424.533 72.9333 434 75.4666ZM206.667 135.333C237.6 143.467 261.333 170.533 263.6 200C264 204.8 263.6 212.267 262.8 216.533C260.533 228.4 250.933 248 247.2 248C246.4 248 243.067 244.267 239.733 239.6C223.067 216.8 193.733 178.667 188.8 173.6C176.4 160.533 164.4 159.2 157.2 170.133C153.6 175.6 154 181.333 158.533 187.467C165.2 196.667 171.2 201.2 219.067 234C232.8 243.333 244 251.6 244 252.133C244 253.867 228.133 263.733 220.267 266.8C211.067 270.4 192.8 271.6 182.667 269.467C150.667 262.533 125.333 229.333 125.333 194C125.467 167.6 141.2 145.467 166.533 136.533C177.067 132.8 195.067 132.267 206.667 135.333ZM647.867 135.867C691.467 149.467 704 203.067 673.067 243.733C664.133 255.2 647.467 265.733 632.133 269.333C620.267 272.133 603.333 270.533 592.8 265.6C582.133 260.667 572 253.733 572 251.6C572 250.667 576.667 246.933 582.4 243.2C596.933 233.6 636.533 206 645.733 198.933C655.733 191.333 661.333 183.733 661.333 177.6C661.333 171.333 652.933 162.667 646.8 162.667C634.933 162.667 627.467 170 594.667 214.533C581.067 232.933 569.333 248 568.533 248C566.267 248 559.067 236.267 555.6 227.067C553.2 220.8 552.667 216.533 552.667 203.867C552.667 188.4 552.667 188.4 558.533 176.667C566.533 160.533 578 148.933 593.733 141.467C600 138.4 607.6 135.333 610.8 134.8C621.733 132.667 639.2 133.2 647.867 135.867ZM309.067 271.467C312.8 273.333 318.667 277.867 322 281.6C325.333 285.333 340 306.133 354.4 327.867C380.933 367.333 380.933 367.333 371.067 377.067C361.333 386.667 361.333 386.667 321.6 360.4C268.8 325.333 261.333 317.6 261.333 298.8C261.333 291.733 266 280.8 270.933 276.4C280.667 267.333 296.667 265.2 309.067 271.467ZM535.333 270.533C538.4 271.867 543.2 275.733 546.267 279.2C558.133 292.667 556.933 310.133 543.067 325.467C540.4 328.4 519.467 343.333 496.533 358.8C454.667 386.8 454.667 386.8 445.333 377.467C440.133 372.267 436 367.733 436 367.333C436 365.733 490 285.733 493.867 281.6C499.333 275.6 504.667 272 510.533 269.867C517.467 267.333 529.067 267.6 535.333 270.533ZM186.667 317.2C209.2 323.6 225.733 335.6 244 358.667C262.133 381.467 281.867 396.667 303.333 404C310.8 406.533 334.267 410.133 348.667 410.933C355.067 411.333 355.333 411.467 355.333 415.333C355.333 419.333 355.333 419.333 340 420.267C318.8 421.6 306.933 424.4 291.333 432C275.467 439.6 260.933 451.467 248 467.333C234.667 483.867 221.6 496.267 211.333 502.4C174.267 524.267 130.133 519.467 99.0667 490.133C78.1333 470.4 67.6 444.667 67.7333 414C67.8667 369.333 94.9333 331.333 135.867 318C151.733 312.8 170.667 312.533 186.667 317.2ZM675.867 316.8C721.333 328.267 752.8 376.933 746.933 426.4C738.933 494 676.533 533.467 616.933 508.533C599.2 501.067 587.467 491.2 565.867 465.2C553.733 450.667 538.933 438.8 523.6 431.467C509.067 424.4 496.8 421.6 476 420.267C460.667 419.333 460.667 419.333 460.667 415.333C460.667 411.6 461.067 411.333 466 411.067C518 407.733 541.467 395.6 576.4 353.6C582.133 346.8 590.133 338.667 594.4 335.333C618.4 316.4 647.867 309.733 675.867 316.8ZM424.8 379.733C450.4 392.8 455.333 425.733 434.667 444.533C426.4 452 419.6 454.667 408.533 454.667C386 454.667 369.333 438 369.333 415.2C369.333 398.133 379.2 384.133 395.333 378.267C404 375.2 417.2 375.867 424.8 379.733ZM371.333 452.8C381.467 462.933 381.467 462.933 379.067 466.533C364.667 488.533 327.333 541.867 322.8 546.933C314.4 556.4 305.6 560.533 294 560.533C282.667 560.533 275.067 556.933 268.4 548.267C257.333 533.733 260.4 514.4 276 501.067C280.4 497.333 358.8 443.467 360.933 442.8C361.067 442.667 365.733 447.2 371.333 452.8ZM497.333 471.067C543.467 502.267 548.667 506.933 552.8 520.933C554.667 527.2 554.8 529.6 553.467 535.467C548.667 556.4 526.4 566.933 507.333 557.067C500 553.2 490.8 544.133 483.733 534C450.533 485.733 436 463.867 436 462.4C436 461.467 437.867 459.467 440.133 458C442.267 456.533 446.267 452.533 448.8 448.933C451.467 445.467 454 442.667 454.4 442.8C454.933 442.8 474.267 455.467 497.333 471.067ZM413.6 485.333C415.733 527.867 429.333 551.333 470.933 585.067C484 595.467 492.133 605.733 498.667 619.333C505.733 634 508 644 508 659.467C508 675.067 505.6 686 499.467 699.067C487.733 724.267 466.8 742.267 438.667 751.467C428.667 754.667 425.2 755.067 409.333 755.2C394.4 755.333 389.6 754.8 380.933 752.267C345.067 741.867 318.933 716.4 309.733 682.667C306.533 670.933 306.533 647.6 309.867 636.667C316.533 613.867 328 598.133 351.2 579.467C378.267 557.6 393.067 536.8 399.2 511.6C400.933 504.667 404.133 478.133 403.733 473.333C403.467 468.667 404.267 467.867 408.4 468.267C412.667 468.667 412.667 468.667 413.6 485.333ZM213.2 559.333C226.4 562.533 246.4 574.267 243.333 577.067C242.533 577.733 229.733 586.8 214.667 597.333C159.333 636 153.733 641.067 155.067 651.2C156 657.467 161.467 663.6 167.467 664.8C173.6 666 182 661.6 190.267 653.2C195.6 647.6 229.867 602.8 244.533 582.267C246.667 579.333 246.667 579.333 250.667 584C256 590.133 262.267 606.8 263.467 617.467C265.2 635.333 258.133 654.667 244.267 669.467C226 688.933 198.4 698.133 173.6 692.8C161.6 690.267 152 684.933 143.2 675.733C131.067 663.067 126.267 651.2 126.133 634C126.133 612.533 133.6 594.533 148.933 579.067C167.333 560.667 189.6 553.867 213.2 559.333ZM634 559.333C650.8 563.733 664.8 573.733 675.2 589.067C690.933 612 693.733 641.333 682.4 662.933C674.267 678.267 656.667 690.533 638.533 693.467C618.133 696.8 592.667 689.2 575.733 674.667C567.6 667.6 557.733 652.667 554.4 642.267C550.667 630.667 550.8 614.133 554.667 602.667C557.467 594 565.733 580 567.867 580C568.533 580 578.267 592.133 589.467 606.933C618.667 645.6 619.333 646.533 627.6 655.067C636.267 663.867 642.667 666.4 650 664C655.067 662.4 659.6 657.467 660.8 652.4C662 647.733 657.867 639.467 651.467 633.6C645.867 628.4 611.467 603.6 586.267 586.667C578.4 581.333 572 576.533 572 576C572 572.933 590.667 562.4 601.333 559.467C610.933 556.933 624.267 556.8 634 559.333Z" fill="black"/>
<path d="M398.667 138.533C384.4 143.2 375.067 154.8 372 172C369.467 186 372.533 203.067 381.2 221.867C386.267 232.933 405.333 262.533 407.6 262.533C410 262.667 431.333 229.733 436.667 217.6C439.333 211.467 442.4 202.133 443.6 196.933C450.133 165.867 435.2 139.333 410.267 137.867C405.733 137.6 400.533 137.867 398.667 138.533Z" fill="black"/>
<path d="M164.133 380C138.267 385.467 124.4 409.333 135.067 430.133C139.2 438.267 144.667 443.2 154.667 447.867C161.067 450.933 163.733 451.333 176 451.333C192.133 451.2 200.533 449.2 216.667 441.2C236.933 431.067 261.2 413.333 254.667 413.333C254 413.333 249.333 410.4 244.4 406.8C230.533 396.8 213.333 387.467 201.6 383.6C189.867 379.733 173.2 378.133 164.133 380Z" fill="black"/>
<path d="M630.667 379.6C617.333 381.6 602.667 387.067 588.667 395.067C576.4 402 560 413.6 560 415.333C560.133 418.533 589.2 436.933 605.333 444C640.8 459.6 675.733 450.8 683.467 424.267C691.2 397.867 663.467 374.4 630.667 379.6Z" fill="black"/>
<path d="M400.667 576.133C382.533 603.467 376.267 616.4 372.667 634.533C365.2 670.8 388 697.867 418.933 689.333C426.133 687.333 437.067 676.667 441.2 668C444.133 661.6 444.533 658.933 444.533 647.333C444.4 631.467 440.8 619.067 431.067 602C423.2 588.267 409.067 568 407.333 568.133C406.667 568.133 403.6 571.733 400.667 576.133Z" fill="black"/>
</mask>
<g mask="url(#mask0_1_85)">
<rect width="816" height="824" fill="url(#paint0_linear_1_85)"/>
</g>
</g>
<defs>
<linearGradient id="paint0_linear_1_85" x1="0" y1="0" x2="816" y2="824" gradientUnits="userSpaceOnUse">
<stop stop-color="#763128"/>
<stop offset="1" stop-color="#FF8B5D"/>
</linearGradient>
<clipPath id="clip0_1_85">
<rect width="816" height="824" rx="65" fill="white"/>
</clipPath>
</defs>
</svg>
