<svg width="1097" height="1178" viewBox="0 0 1097 1178" fill="none" xmlns="http://www.w3.org/2000/svg">
<path d="M51.2229 1177.74C42.3066 1178.39 33.3434 1177.83 24.5773 1176.07C4.74305 1171.59 -3.73357 1158.25 1.52893 1138.61C5.45915 1123.79 12.5202 1110.3 19.5313 1096.81C72.4894 995.202 128.212 894.998 182.735 794.245C208.271 747.019 233.867 699.826 259.525 652.666C264.804 642.923 270.016 633.145 272.215 622.119C273.047 617.888 273.447 613.491 269.45 610.726C265.187 607.761 261.723 610.726 258.242 613.141C189.247 661.811 117.97 707.166 47.1595 753.237C41.6971 756.785 36.7344 759.316 30.506 755.319C24.2776 751.321 22.1792 745.558 25.5099 739.112C50.257 689.343 75.4704 639.775 99.8178 589.856C115.838 557.076 142.018 535.04 172.394 516.568C251.181 468.665 331.101 422.71 410.688 376.156C505.713 320.508 601.021 265.209 695.996 209.261C812.903 140.437 930.81 73.279 1048.78 6.35416C1052.9 4.08541 1056.25 1.67501 1061.66 0.641068C1077.33 -2.35822 1096.59 5.27724 1096.94 21.2282C1097.1 28.3113 1095.46 33.4372 1090.45 38.1676C1071.2 56.2729 1049.55 71.3135 1028.47 86.9871C908.76 176.315 786.99 262.744 668.651 354.003C599.539 407.453 531.443 462.219 469.991 524.713C408.89 586.841 361.994 657.963 331.767 739.679C322.758 764.047 317.279 789.164 322.675 815.348C329.836 850.193 359.146 873.928 394.901 874.877C436.934 875.993 475.587 862.985 513.59 847.228C593.277 814.182 663.971 766.096 732.916 715.161C836.418 638.725 930.01 551.513 1014.76 454.774C1030.65 436.635 1046.63 418.563 1061.19 399.292C1063.02 396.877 1064.95 393.945 1068.63 395.711C1070.18 396.437 1071.39 397.732 1072.01 399.325C1072.63 400.919 1072.61 402.69 1071.96 404.272C1070.16 409.791 1067.99 415.183 1065.47 420.412C1019.21 516.368 967.947 609.444 904.647 695.423C851.708 767.793 791.558 834.6 725.123 894.815C642.305 969.551 550.744 1031.51 449.891 1079.17C369.155 1117.31 285.021 1145.99 197.091 1162.78C149.016 1172.14 100.196 1177.15 51.2229 1177.74Z" fill="#0E0E0E"/>
<path d="M221.188 386.467C200.055 386.367 184.767 371.11 186.865 349.823C191.528 302.353 204.152 257.364 236.493 220.321C251.264 203.431 269.55 190.872 288.618 179.379C330.918 153.895 376.415 134.824 420.747 113.404C430.456 108.707 440.115 103.827 450.09 99.746C468.059 92.3839 486.528 104.743 486.095 123.298C485.924 126.903 484.773 130.393 482.764 133.392C455.297 178.919 427.836 224.446 400.38 269.973C385.258 294.957 362.726 311.414 337.563 325.322C305.921 342.877 274.762 361.615 243.387 379.804C236.176 384.018 228.632 387.433 221.188 386.467Z" fill="#0E0E0E"/>
</svg>
