<svg width="229" height="245" viewBox="0 0 229 245" fill="none" xmlns="http://www.w3.org/2000/svg">
<path d="M10.6516 244.906C8.79749 245.041 6.93362 244.925 5.11076 244.56C0.986299 243.628 -0.776381 240.854 0.317935 236.77C1.13521 233.687 2.60353 230.882 4.06147 228.076C15.0739 206.948 26.6612 186.111 37.9991 165.16C43.3091 155.34 48.6318 145.526 53.9671 135.719C55.0649 133.693 56.1488 131.66 56.606 129.367C56.7791 128.487 56.8622 127.573 56.0311 126.998C55.1446 126.382 54.4242 126.998 53.7005 127.5C39.3532 137.621 24.5314 147.052 9.80663 156.633C8.67075 157.37 7.63877 157.897 6.3436 157.066C5.04843 156.234 4.61209 155.036 5.30469 153.696C10.4507 143.346 15.6938 133.039 20.7567 122.658C24.0881 115.842 29.532 111.259 35.8486 107.418C52.2322 97.457 68.8512 87.901 85.401 78.2202C105.161 66.6483 124.98 55.1492 144.73 43.5149C169.04 29.2033 193.558 15.2381 218.09 1.32132C218.947 0.849546 219.644 0.348312 220.767 0.133308C224.026 -0.490382 228.032 1.09738 228.105 4.41432C228.138 5.88722 227.797 6.95314 226.755 7.9368C222.752 11.7017 218.25 14.8294 213.865 18.0886C188.973 36.6639 163.652 54.6365 139.043 73.6136C124.672 84.7283 110.511 96.1166 97.7328 109.112C85.027 122.031 75.2751 136.821 68.9897 153.813C67.1162 158.881 65.9769 164.104 67.0989 169.548C68.588 176.794 74.683 181.73 82.1181 181.927C90.8587 182.159 98.8964 179.454 106.799 176.178C123.37 169.306 138.07 159.307 152.407 148.715C173.93 132.82 193.392 114.685 211.015 94.5684C214.319 90.7965 217.644 87.0385 220.67 83.0311C221.051 82.5289 221.453 81.9193 222.218 82.2865C222.54 82.4376 222.791 82.7067 222.92 83.0381C223.049 83.3695 223.046 83.7378 222.911 84.0668C222.536 85.2145 222.085 86.3358 221.56 87.423C211.94 107.377 201.281 126.731 188.118 144.611C177.109 159.66 164.601 173.552 150.786 186.073C133.565 201.614 114.525 214.499 93.553 224.408C76.7642 232.34 59.269 238.304 40.9842 241.796C30.9874 243.742 20.8354 244.783 10.6516 244.906Z" fill="white"/>
<path d="M45.9952 80.3643C41.6006 80.3436 38.4216 77.1709 38.8579 72.7444C39.8276 62.8732 42.4525 53.518 49.1777 45.8149C52.2494 42.3028 56.0518 39.6913 60.017 37.3014C68.8131 32.0021 78.2741 28.0363 87.4926 23.5821C89.5116 22.6053 91.5201 21.5905 93.5945 20.7419C97.3311 19.211 101.172 21.781 101.082 25.6394C101.046 26.3891 100.807 27.1149 100.389 27.7384C94.6773 37.2056 88.9667 46.6727 83.2574 56.1399C80.1129 61.3353 75.4275 64.7574 70.1948 67.6495C63.6151 71.3001 57.1358 75.1966 50.6114 78.9789C49.1119 79.8552 47.5432 80.5652 45.9952 80.3643Z" fill="white"/>
</svg>
