<svg class="icon">
  <symbol id="3D" viewBox="0 0 24 24" fill="none" xmlns="http://www.w3.org/2000/svg">
    <path fill-rule="evenodd" clip-rule="evenodd" d="M11.5144 1.12584C11.8164 0.958052 12.1836 0.958052 12.4856 1.12584L21.4845 6.12522C21.4921 6.12942 21.4996 6.13372 21.5071 6.13813C21.8125 6.31781 22 6.64568 22 7V17C22 17.3632 21.8031 17.6978 21.4856 17.8742L12.4856 22.8742C12.1791 23.0445 11.8059 23.0416 11.5022 22.8673L2.51436 17.874C2.19689 17.6977 2 17.3631 2 16.9999V7C2 6.64568 2.18749 6.3177 2.49287 6.13802L2.5073 6.13784L2.51436 6.12584L11.5144 1.12584ZM12.0001 10.856L5.05923 6.99995L12 3.14396L18.9409 7L12.0001 10.856ZM4 8.69951V16.4115L11 20.3004V12.5884L4 8.69951ZM13 12.5884V20.3005L20 16.4116V8.69951L13 12.5884Z" fill="currentColor"/>
  </symbol>
  <symbol id="animation" viewBox="0 0 36 36" fill="none" xmlns="http://www.w3.org/2000/svg">
    <path d="M10.16,31.71a4.4,4.4,0,0,1-4.64-1A4.34,4.34,0,0,1,4.23,27.6a4.41,4.41,0,0,1,.18-1.2,11.61,11.61,0,0,1-1-2.56,6.4,6.4,0,0,0,9.33,8.63A11.55,11.55,0,0,1,10.16,31.71Z" fill="currentColor"/>
    <path d="M18.41,27.68a7.61,7.61,0,0,1-9.08-1.26,7.58,7.58,0,0,1-1.27-9.06,14.26,14.26,0,0,1-.37-2.85,9.58,9.58,0,0,0,.22,13.33,9.63,9.63,0,0,0,13.35.22A14.46,14.46,0,0,1,18.41,27.68Z" fill="currentColor"/>
    <path d="M21.66,26.21a12.1,12.1,0,1,1,8.57-3.54h0A12.11,12.11,0,0,1,21.66,26.21ZM21.66,4A10.11,10.11,0,0,0,11.54,14.11a10,10,0,0,0,3,7.14,10.12,10.12,0,0,0,14.31,0A10.11,10.11,0,0,0,21.66,4Zm7.86,18h0Z" fill="currentColor"/>
  </symbol>
  <symbol id="chat" viewBox="0 0 511.998 511.998" fill="none" xmlns="http://www.w3.org/2000/svg">
    <path d="M418.643,21.318H221.353c-51.547,0-93.355,41.807-93.355,93.355v13.312H93.355C41.807,127.984,0,169.792,0,221.339
				v88.683c0,55.289,26.377,95.296,76.864,95.296h8.469v64c0,22.932,31.239,29.714,40.747,8.845
				c7.211-15.827,19.353-30.833,35.143-44.611c9.913-8.65,20.621-16.265,31.321-22.725c3.835-2.315,7.11-4.157,9.649-5.509h75.14
				c52.857,0,106.667-44.46,106.667-95.296v-11.371h51.134c50.487,0,76.864-40.007,76.864-95.296v-88.683
				C511.998,63.119,470.206,21.318,418.643,21.318z M277.333,362.651H197.12c-3.133,0-6.227,0.69-9.063,2.021
				c-3.758,1.764-9.867,4.982-17.563,9.628c-12.7,7.667-25.394,16.695-37.322,27.103c-1.756,1.533-3.481,3.081-5.172,4.647v-22.065
				c0-11.782-9.551-21.333-21.333-21.333H76.864c-22.276,0-34.197-18.081-34.197-52.629v-88.683
				c0-27.983,22.705-50.688,50.688-50.688h55.977h141.312c1.198,0,2.383,0.057,3.56,0.138c21.165,1.471,38.766,15.936,44.849,35.478
				c1.481,4.761,2.279,9.823,2.279,15.072v55.979c0,0.015,0.002,0.029,0.002,0.044v32.661
				C341.333,335.302,308.233,362.651,277.333,362.651z M469.331,203.355c0,34.548-11.921,52.629-34.197,52.629H384v-34.645
				c0-9.74-1.495-19.131-4.264-27.959c-11.505-36.697-45.057-63.637-85.143-65.306c-1.31-0.055-2.625-0.089-3.948-0.089h-0.002
				H170.665v-13.312c0-27.983,22.705-50.688,50.688-50.688h197.291c27.996,0,50.688,22.696,50.688,50.688V203.355z" fill="currentColor"/>
			<path d="M192,234.651c-11.776,0-21.333,9.557-21.333,21.333c0,11.776,9.557,21.333,21.333,21.333s21.333-9.557,21.333-21.333
				C213.333,244.208,203.776,234.651,192,234.651z" fill="currentColor"/>
			<path d="M277.333,234.651c-11.776,0-21.333,9.557-21.333,21.333c0,11.776,9.557,21.333,21.333,21.333s21.333-9.557,21.333-21.333
				C298.667,244.208,289.109,234.651,277.333,234.651z" fill="currentColor"/>
			<path d="M106.667,234.651c-11.776,0-21.333,9.557-21.333,21.333c0,11.776,9.557,21.333,21.333,21.333S128,267.76,128,255.984
				C128,244.208,118.443,234.651,106.667,234.651z" fill="currentColor"/>
  </symbol>
</svg>